<svg version="1.1" xmlns="http://www.w3.org/2000/svg" xmlns:xlink="http://www.w3.org/1999/xlink" width="576" height="384" viewBox="0 0 576 384"><defs/><g/><g transform="scale(1,1)"><path fill="none" stroke="rgb(0,0,0)" paint-order="fill stroke markers" d=" M 288 32 L 448 192 L 288 352 L 128 192 L 288 32 L 288 32" stroke-opacity="1" stroke-linecap="round" stroke-miterlimit="10"/><path fill="none" stroke="rgb(0,0,0)" paint-order="fill stroke markers" d=" M 448 32 L 128 32" stroke-opacity="1" stroke-linecap="round" stroke-miterlimit="10"/><path fill="none" stroke="rgb(0,0,0)" paint-order="fill stroke markers" d=" M 440 40 L 136 40" stroke-opacity="1" stroke-linecap="round" stroke-miterlimit="10"/><path fill="none" stroke="rgb(0,0,0)" paint-order="fill stroke markers" d=" M 432 48 L 144 48" stroke-opacity="1" stroke-linecap="round" stroke-miterlimit="10"/><path fill="none" stroke="rgb(0,0,0)" paint-order="fill stroke markers" d=" M 424 56 L 152 56" stroke-opacity="1" stroke-linecap="round" stroke-miterlimit="10"/><path fill="none" stroke="rgb(0,0,0)" paint-order="fill stroke markers" d=" M 416 64 L 160 64" stroke-opacity="1" stroke-linecap="round" stroke-miterlimit="10"/><path fill="none" stroke="rgb(0,0,0)" paint-order="fill stroke markers" d=" M 408 72 L 168 72" stroke-opacity="1" stroke-linecap="round" stroke-miterlimit="10"/><path fill="none" stroke="rgb(0,0,0)" paint-order="fill stroke markers" d=" M 400 80 L 176 80" stroke-opacity="1" stroke-linecap="round" stroke-miterlimit="10"/><path fill="none" stroke="rgb(0,0,0)" paint-order="fill stroke markers" d=" M 392 88 L 184 88" stroke-opacity="1" stroke-linecap="round" stroke-miterlimit="10"/><path fill="none" stroke="rgb(0,0,0)" paint-order="fill stroke markers" d=" M 384 96 L 192 96" stroke-opacity="1" stroke-linecap="round" stroke-miterlimit="10"/><path fill="none" stroke="rgb(0,0,0)" paint-order="fill stroke markers" d=" M 376 104 L 200 104" stroke-opacity="1" stroke-linecap="round" stroke-miterlimit="10"/><path fill="none" stroke="rgb(0,0,0)" paint-order="fill stroke markers" d=" M 368 112 L 208 112" stroke-opacity="1" stroke-linecap="round" stroke-miterlimit="10"/><path fill="none" stroke="rgb(0,0,0)" paint-order="fill stroke markers" d=" M 360 120 L 216 120" stroke-opacity="1" stroke-linecap="round" stroke-miterlimit="10"/><path fill="none" stroke="rgb(0,0,0)" paint-order="fill stroke markers" d=" M 352 128 L 224 128" stroke-opacity="1" stroke-linecap="round" stroke-miterlimit="10"/><path fill="none" stroke="rgb(0,0,0)" paint-order="fill stroke markers" d=" M 344 136 L 232 136" stroke-opacity="1" stroke-linecap="round" stroke-miterlimit="10"/><path fill="none" stroke="rgb(0,0,0)" paint-order="fill stroke markers" d=" M 336 144 L 240 144" stroke-opacity="1" stroke-linecap="round" stroke-miterlimit="10"/><path fill="none" stroke="rgb(0,0,0)" paint-order="fill stroke markers" d=" M 328 152 L 248 152" stroke-opacity="1" stroke-linecap="round" stroke-miterlimit="10"/><path fill="none" stroke="rgb(0,0,0)" paint-order="fill stroke markers" d=" M 320 160 L 256 160" stroke-opacity="1" stroke-linecap="round" stroke-miterlimit="10"/><path fill="none" stroke="rgb(0,0,0)" paint-order="fill stroke markers" d=" M 312 168 L 264 168" stroke-opacity="1" stroke-linecap="round" stroke-miterlimit="10"/><path fill="none" stroke="rgb(0,0,0)" paint-order="fill stroke markers" d=" M 304 176 L 272 176" stroke-opacity="1" stroke-linecap="round" stroke-miterlimit="10"/><path fill="none" stroke="rgb(0,0,0)" paint-order="fill stroke markers" d=" M 296 184 L 280 184" stroke-opacity="1" stroke-linecap="round" stroke-miterlimit="10"/><path fill="none" stroke="rgb(0,0,0)" paint-order="fill stroke markers" d=" M 288 192 L 288 192" stroke-opacity="1" stroke-linecap="round" stroke-miterlimit="10"/><path fill="none" stroke="rgb(0,0,0)" paint-order="fill stroke markers" d=" M 280 200 L 296 200" stroke-opacity="1" stroke-linecap="round" stroke-miterlimit="10"/><path fill="none" stroke="rgb(0,0,0)" paint-order="fill stroke markers" d=" M 272 208 L 304 208" stroke-opacity="1" stroke-linecap="round" stroke-miterlimit="10"/><path fill="none" stroke="rgb(0,0,0)" paint-order="fill stroke markers" d=" M 264 216 L 312 216" stroke-opacity="1" stroke-linecap="round" stroke-miterlimit="10"/><path fill="none" stroke="rgb(0,0,0)" paint-order="fill stroke markers" d=" M 256 224 L 320 224" stroke-opacity="1" stroke-linecap="round" stroke-miterlimit="10"/><path fill="none" stroke="rgb(0,0,0)" paint-order="fill stroke markers" d=" M 248 232 L 328 232" stroke-opacity="1" stroke-linecap="round" stroke-miterlimit="10"/><path fill="none" stroke="rgb(0,0,0)" paint-order="fill stroke markers" d=" M 240 240 L 336 240" stroke-opacity="1" stroke-linecap="round" stroke-miterlimit="10"/><path fill="none" stroke="rgb(0,0,0)" paint-order="fill stroke markers" d=" M 232 248 L 344 248" stroke-opacity="1" stroke-linecap="round" stroke-miterlimit="10"/><path fill="none" stroke="rgb(0,0,0)" paint-order="fill stroke markers" d=" M 224 256 L 352 256" stroke-opacity="1" stroke-linecap="round" stroke-miterlimit="10"/><path fill="none" stroke="rgb(0,0,0)" paint-order="fill stroke markers" d=" M 216 264 L 360 264" stroke-opacity="1" stroke-linecap="round" stroke-miterlimit="10"/><path fill="none" stroke="rgb(0,0,0)" paint-order="fill stroke markers" d=" M 208 272 L 368 272" stroke-opacity="1" stroke-linecap="round" stroke-miterlimit="10"/><path fill="none" stroke="rgb(0,0,0)" paint-order="fill stroke markers" d=" M 200 280 L 376 280" stroke-opacity="1" stroke-linecap="round" stroke-miterlimit="10"/><path fill="none" stroke="rgb(0,0,0)" paint-order="fill stroke markers" d=" M 192 288 L 384 288" stroke-opacity="1" stroke-linecap="round" stroke-miterlimit="10"/><path fill="none" stroke="rgb(0,0,0)" paint-order="fill stroke markers" d=" M 184 296 L 392 296" stroke-opacity="1" stroke-linecap="round" stroke-miterlimit="10"/><path fill="none" stroke="rgb(0,0,0)" paint-order="fill stroke markers" d=" M 176 304 L 400 304" stroke-opacity="1" stroke-linecap="round" stroke-miterlimit="10"/><path fill="none" stroke="rgb(0,0,0)" paint-order="fill stroke markers" d=" M 168 312 L 408 312" stroke-opacity="1" stroke-linecap="round" stroke-miterlimit="10"/><path fill="none" stroke="rgb(0,0,0)" paint-order="fill stroke markers" d=" M 160 320 L 416 320" stroke-opacity="1" stroke-linecap="round" stroke-miterlimit="10"/><path fill="none" stroke="rgb(0,0,0)" paint-order="fill stroke markers" d=" M 152 328 L 424 328" stroke-opacity="1" stroke-linecap="round" stroke-miterlimit="10"/><path fill="none" stroke="rgb(0,0,0)" paint-order="fill stroke markers" d=" M 144 336 L 432 336" stroke-opacity="1" stroke-linecap="round" stroke-miterlimit="10"/><path fill="none" stroke="rgb(0,0,0)" paint-order="fill stroke markers" d=" M 136 344 L 440 344" stroke-opacity="1" stroke-linecap="round" stroke-miterlimit="10"/><path fill="none" stroke="rgb(0,0,0)" paint-order="fill stroke markers" d=" M 128 352 L 448 352" stroke-opacity="1" stroke-linecap="round" stroke-miterlimit="10"/><g transform="scale(1,1)"/></g></svg>