<svg version="1.1" xmlns="http://www.w3.org/2000/svg" xmlns:xlink="http://www.w3.org/1999/xlink" width="576" height="384" viewBox="0 0 576 384"><defs/><g/><g transform="scale(1,1)"><path fill="none" stroke="rgb(0,0,0)" paint-order="fill stroke markers" d=" M 288 32 L 448 192 L 288 352 L 128 192 L 288 32 L 288 32" stroke-opacity="1" stroke-linecap="round" stroke-miterlimit="10"/><path fill="none" stroke="rgb(0,0,0)" paint-order="fill stroke markers" d=" M 128 32 L -192 32" stroke-opacity="1" stroke-linecap="round" stroke-miterlimit="10"/><path fill="none" stroke="rgb(0,0,0)" paint-order="fill stroke markers" d=" M 128 48 L -160 48" stroke-opacity="1" stroke-linecap="round" stroke-miterlimit="10"/><path fill="none" stroke="rgb(0,0,0)" paint-order="fill stroke markers" d=" M 128 64 L -128 64" stroke-opacity="1" stroke-linecap="round" stroke-miterlimit="10"/><path fill="none" stroke="rgb(0,0,0)" paint-order="fill stroke markers" d=" M 128 80 L -96 80" stroke-opacity="1" stroke-linecap="round" stroke-miterlimit="10"/><path fill="none" stroke="rgb(0,0,0)" paint-order="fill stroke markers" d=" M 128 96 L -64 96" stroke-opacity="1" stroke-linecap="round" stroke-miterlimit="10"/><path fill="none" stroke="rgb(0,0,0)" paint-order="fill stroke markers" d=" M 128 112 L -32 112" stroke-opacity="1" stroke-linecap="round" stroke-miterlimit="10"/><path fill="none" stroke="rgb(0,0,0)" paint-order="fill stroke markers" d=" M 128 128 L 0 128" stroke-opacity="1" stroke-linecap="round" stroke-miterlimit="10"/><path fill="none" stroke="rgb(0,0,0)" paint-order="fill stroke markers" d=" M 128 144 L 32 144" stroke-opacity="1" stroke-linecap="round" stroke-miterlimit="10"/><path fill="none" stroke="rgb(0,0,0)" paint-order="fill stroke markers" d=" M 128 160 L 64 160" stroke-opacity="1" stroke-linecap="round" stroke-miterlimit="10"/><path fill="none" stroke="rgb(0,0,0)" paint-order="fill stroke markers" d=" M 128 176 L 96 176" stroke-opacity="1" stroke-linecap="round" stroke-miterlimit="10"/><path fill="none" stroke="rgb(0,0,0)" paint-order="fill stroke markers" d=" M 128 192 L 128 192" stroke-opacity="1" stroke-linecap="round" stroke-miterlimit="10"/><path fill="none" stroke="rgb(0,0,0)" paint-order="fill stroke markers" d=" M 128 208 L 160 208" stroke-opacity="1" stroke-linecap="round" stroke-miterlimit="10"/><path fill="none" stroke="rgb(0,0,0)" paint-order="fill stroke markers" d=" M 128 224 L 192 224" stroke-opacity="1" stroke-linecap="round" stroke-miterlimit="10"/><path fill="none" stroke="rgb(0,0,0)" paint-order="fill stroke markers" d=" M 128 240 L 224 240" stroke-opacity="1" stroke-linecap="round" stroke-miterlimit="10"/><path fill="none" stroke="rgb(0,0,0)" paint-order="fill stroke markers" d=" M 128 256 L 256 256" stroke-opacity="1" stroke-linecap="round" stroke-miterlimit="10"/><path fill="none" stroke="rgb(0,0,0)" paint-order="fill stroke markers" d=" M 128 272 L 288 272" stroke-opacity="1" stroke-linecap="round" stroke-miterlimit="10"/><path fill="none" stroke="rgb(0,0,0)" paint-order="fill stroke markers" d=" M 128 288 L 320 288" stroke-opacity="1" stroke-linecap="round" stroke-miterlimit="10"/><path fill="none" stroke="rgb(0,0,0)" paint-order="fill stroke markers" d=" M 128 304 L 352 304" stroke-opacity="1" stroke-linecap="round" stroke-miterlimit="10"/><path fill="none" stroke="rgb(0,0,0)" paint-order="fill stroke markers" d=" M 128 320 L 384 320" stroke-opacity="1" stroke-linecap="round" stroke-miterlimit="10"/><path fill="none" stroke="rgb(0,0,0)" paint-order="fill stroke markers" d=" M 128 336 L 416 336" stroke-opacity="1" stroke-linecap="round" stroke-miterlimit="10"/><path fill="none" stroke="rgb(0,0,0)" paint-order="fill stroke markers" d=" M 128 352 L 448 352" stroke-opacity="1" stroke-linecap="round" stroke-miterlimit="10"/><g transform="scale(1,1)"/></g></svg>